<svg class="icon" width="32" height="32" viewBox="0 0 1024 1024" xmlns="http://www.w3.org/2000/svg"><path d="M200.818 75.68l86.095-50.124C355.767-14.458 451.12-8.818 556.265 51.948l-86.095 50.018c-105.25-60.66-200.604-66.3-269.352-26.286z" fill="#FF7517"/><path d="M200.818 75.68l86.095-50.124a186.237 186.237 0 0130.649-14.154L231.467 61.42a182.725 182.725 0 00-30.65 14.26m30.65-14.26l86.095-50.018a210.927 210.927 0 0126.499-7.343L257.86 54.183a196.88 196.88 0 00-26.393 7.237" fill="#FF7517"/><path d="M257.86 54.183l86.2-50.124A206.99 206.99 0 01365.878.973L279.676 50.99c-7.45.745-14.686 1.809-21.284 3.192m21.284-3.192L365.877.974c6.385-.958 12.984-.958 19.582-.958L299.364 50.14c-6.705 0-13.196 0-19.688.852" fill="#FF7517"/><path d="M299.364 50.14L385.459.014c5.853 0 11.812 0 17.772.638L317.136 50.67c-6.066 0-11.919-.638-17.772 0m17.772.001L403.231.653c5.534 0 11.174.958 16.921 1.703l-86.201 50.018c-5.64-.745-11.28-1.277-16.815-1.703" fill="#FF7517"/><path d="M333.95 52.374l86.308-50.018c5.428.745 10.643 1.596 16.496 2.66l-86.201 50.125c-5.64-1.064-11.175-2.022-16.602-2.767" fill="#FF7517"/><path d="M350.553 55.141l86.094-50.124 15.538 3.511-86.201 50.018c-5.215-1.277-10.642-2.447-15.431-3.405" fill="#FF7517"/><path d="M365.984 58.546l86.2-50.018c5.215 1.278 10.643 2.661 15.645 4.257L381.628 62.91a351.19 351.19 0 00-15.644-4.364m15.644 4.364l86.2-50.125c5.003 1.597 10.643 3.193 15.113 5.002l-86.095 50.018c-5.108-1.703-10.642-3.405-15.218-4.895m15.218 4.895l86.095-50.018q7.662 2.767 15.324 5.747l-86.201 50.018-15.218-5.747m15.218 5.747l86.201-50.018c5.002 2.022 10.642 4.15 15.112 6.385l-86.095 50.125a310.763 310.763 0 00-15.218-6.492" fill="#FF7517"/><path d="M427.282 80.044l86.095-50.125c5.108 2.341 10.642 4.683 15.325 7.237L442.607 87.28c-5.215-2.554-10.642-5.002-15.325-7.236" fill="#FF7517"/><path d="M442.607 87.28l86.095-50.124c5.214 2.554 10.642 5.214 15.537 8.088l-86.201 50.55c-5.108-2.767-10.642-5.428-15.431-7.982m15.431 7.982l86.201-50.018c4.044 2.128 7.982 4.363 12.026 6.704l-86.095 50.018-12.132-6.704" fill="#FF7517"/><path d="M823.17 948.334l-86.095 50.125C805.078 958.87 847.22 874.904 847.54 755.606c.638-240.193-168.359-532.852-377.37-653.64l86.095-50.018c209.118 120.682 378.115 413.34 377.37 653.533-.32 119.405-42.463 203.371-110.466 242.853z" fill="#FF7517"/><path d="M470.17 101.966l86.095-50.018 3.725 2.129-86.52 50.124-3.726-2.235" fill="#FF7517"/><path d="M473.47 104.201l86.094-50.124c5.427 3.192 10.642 6.491 16.07 9.79l-86.202 50.125c-5.32-3.406-10.642-6.705-15.963-9.79m16.389 9.79l86.201-50.124 16.07 10.642-86.201 50.124a381.132 381.132 0 00-16.07-10.642" fill="#FF7517"/><path d="M505.928 124.634l86.2-50.124c5.535 3.83 10.643 7.768 16.39 11.706l-86.095 50.124c-5.428-4.044-10.642-7.981-16.495-11.706m16.495 11.706l86.095-50.124c5.64 4.15 11.174 8.407 16.708 12.664l-86.201 50.125c-5.534-4.364-10.643-8.62-16.602-12.665" fill="#FF7517"/><path d="M539.025 149.005l86.2-50.125c5.641 4.47 11.281 9.046 16.815 13.835l-86.2 50.018c-5.535-4.683-11.175-9.259-16.815-13.728m16.814 13.728l86.201-50.018c5.64 4.789 11.281 9.684 16.815 14.686l-86.201 50.018c-5.534-5.002-10.642-9.897-16.815-14.686m16.815 14.686l86.2-50.018c5.641 5.002 10.643 10.642 16.603 15.431l-86.095 50.018-16.708-15.431m16.708 15.431l86.307-50.018c5.428 5.108 10.643 10.642 15.964 15.75l-86.095 50.125c-5.321-5.428-10.642-10.642-15.963-15.857" fill="#FF7517"/><path d="M605.325 208.707l86.095-50.125c5.32 5.322 10.642 10.643 15.537 16.283l-86.2 50.018c-5.11-5.428-10.643-10.642-15.432-16.176" fill="#FF7517"/><path d="M620.756 224.883l86.201-50.018q7.45 7.981 14.686 16.282l-86.094 50.125c-4.896-5.534-9.791-10.642-14.793-16.39" fill="#FF7517"/><path d="M635.549 241.272l86.094-49.699c5.002 5.64 9.898 11.387 14.687 17.134l-86.202 50.124c-4.789-5.853-9.684-11.493-14.58-17.134" fill="#FF7517"/><path d="M650.128 258.406l86.202-50.125c4.895 5.96 9.79 11.92 14.58 18.092l-85.883 50.337c-4.789-6.066-9.578-12.132-14.58-17.985m14.58 17.985l86.202-50.018c5.746 7.237 11.28 14.58 16.814 22.03l-86.095 50.124c-6.279-7.77-11.493-15.219-16.92-22.136" fill="#FF7517"/><path d="M681.63 298.526l86.094-50.124q12.451 16.708 23.945 34.161l-86.095 50.125q-11.707-17.453-23.945-34.162" fill="#FF7517"/><path d="M705.574 332.688l86.095-50.125q14.686 22.03 28.095 44.804l-86.095 50.018c-8.94-15.112-18.304-30.118-28.095-44.697" fill="#FF7517"/><path d="M733.669 377.385l86.095-50.018c6.492 10.642 12.664 22.029 18.73 33.203l-86.201 50.124c-5.96-11.174-12.239-22.348-18.624-33.31m18.624 33.31l86.201-50.124c4.044 7.556 7.875 15.112 11.706 22.774L764 433.362c-3.726-7.556-7.663-15.112-11.707-22.668" fill="#FF7517"/><path d="M764 433.362l86.2-50.23c3.3 6.597 6.492 13.302 9.685 20.006l-86.202 50.018A573.142 573.142 0 00764 433.15m9.684 20.22l86.202-50.018q4.363 9.046 8.3 18.198l-86.094 50.125c-2.767-6.173-5.534-12.239-8.408-18.305" fill="#FF7517"/><path d="M782.09 471.674l86.095-50.125a1326.856 1326.856 0 017.77 18.092l-86.202 49.912c-2.448-5.96-5.108-12.026-7.662-17.986" fill="#FF7517"/><path d="M789.753 489.553l86.201-50.018a552.333 552.333 0 017.343 18.41l-86.094 50.018a1332.842 1332.842 0 00-7.45-18.41" fill="#FF7517"/><path d="M797.203 508.07l86.094-50.444q3.619 9.259 7.024 18.517l-86.201 50.018c-2.235-6.172-4.576-12.344-6.917-18.517m6.917 18.943l86.201-50.018c2.341 6.385 4.576 12.877 6.705 19.262l-86.202 50.125c-2.128-6.492-4.363-12.877-6.704-19.369m6.704 19.369l86.202-50.125c2.128 6.598 4.256 13.09 6.279 19.582l-86.202 50.124c-1.915-6.598-4.044-13.09-6.279-19.581" fill="#FF7517"/><path d="M817.103 565.537l86.202-50.124a1418.146 1418.146 0 015.853 20.007l-86.202 49.912c-1.809-6.705-3.724-13.41-5.853-20.008" fill="#FF7517"/><path d="M822.956 585.332l86.202-50.125c1.809 6.705 3.618 13.41 5.214 20.114l-86.094 50.018c-1.703-6.705-3.406-13.303-5.322-20.007m5.322 20.22l86.094-50.018c1.703 6.598 3.193 13.196 4.683 19.794l-86.201 50.124c-1.384-6.598-2.98-13.302-4.576-19.9" fill="#FF7517"/><path d="M832.854 625.452l86.2-50.124c1.384 6.598 2.768 13.196 3.938 19.794l-86.094 50.018c-1.277-6.598-2.554-13.09-4.044-19.688m4.044 19.688l86.094-50.018c1.277 6.386 2.342 12.77 3.406 19.05l-86.201 50.124c-.958-6.385-2.129-12.77-3.3-19.156" fill="#FF7517"/><path d="M840.197 664.296l86.2-50.124c.959 6.385 1.81 12.77 2.661 19.05l-86.2 50.017c-.746-6.279-1.704-12.664-2.661-18.943" fill="#FF7517"/><path d="M842.857 683.24l86.201-50.019c.745 6.173 1.49 12.345 2.022 18.517l-86.094 50.657c-.639-6.172-1.277-12.345-2.129-18.624" fill="#FF7517"/><path d="M844.986 702.395l86.094-50.657c.639 6.173 1.065 12.345 1.49 18.411l-86.094 50.018c0-6.066-.958-12.238-1.49-18.304m1.49 18.304l86.094-49.698c0 6.066.639 12.238.852 18.304l-86.095 50.018c0-6.066 0-12.132-.851-18.304" fill="#FF7517"/><path d="M847.327 738.472l86.095-50.018v18.091L847.54 756.67v-18.198m0 18.198l86.095-50.125v18.305l-86.095 50.124V756.67" fill="#FF7517"/><path d="M847.114 774.974l86.095-50.124c0 6.066-.639 12.025-1.064 17.879l-86.202 50.124c0-5.853.852-11.813 1.171-17.879" fill="#FF7517"/><path d="M845.943 792.853l86.202-50.124q-.745 9.258-1.916 18.198l-86.095 50.124c.745-5.96 1.384-12.026 1.81-18.198m-1.81 18.198l86.095-50.124c-.745 6.172-1.703 12.238-2.66 18.091l-86.202 50.125c1.065-5.96 1.916-11.92 2.767-18.092m-2.767 18.092l86.202-50.125c-1.171 6.386-2.342 12.558-3.725 18.624l-86.201 50.018c1.383-6.066 2.66-12.238 3.724-18.517" fill="#FF7517"/><path d="M837.643 847.66l86.2-50.018a268.425 268.425 0 01-5.107 19.262L832.64 867.03c1.809-6.28 3.512-12.77 5.002-19.369m-5.002 19.369l86.095-50.125c-1.916 6.918-4.15 13.516-6.599 19.901l-86.094 50.124c2.34-6.491 4.576-13.09 6.598-19.9" fill="#FF7517"/><path d="M826.043 886.93l86.094-50.125c-2.766 7.556-5.746 14.686-9.045 21.284l-86.202 50.018c3.3-6.81 6.386-14.047 9.153-21.284m-9.153 21.604l86.202-50.018a249.451 249.451 0 01-14.58 25.86l-86.201 50.124a225.187 225.187 0 0014.26-25.966" fill="#FF7517"/><path d="M802.63 934.393l85.882-50.124a192.41 192.41 0 01-65.662 63.853l-86.095 50.124a193.155 193.155 0 0065.556-63.853" fill="#FF7517"/><path d="M470.17 101.966c209.011 120.788 378.008 413.447 377.37 653.64s-170.806 337.142-379.924 216.46S89.714 558.726 90.353 318.427 260.627-18.715 470.17 101.967z" fill="#FFDF5A"/><path d="M240.167 666.84a436.86 253.07 59.84 10437.62-254.293 436.86 253.07 59.84 10-437.62 254.293z" fill="#FFB845"/><path d="M672.051 921.41c-56.403 32.671-134.41 28.095-220.505-21.284-171.125-98.866-309.473-338.42-308.621-535.086 0-97.695 34.8-166.443 90.458-198.795l7.45-4.257c-55.659 31.926-90.14 100.994-90.352 198.688-.639 196.667 137.709 436.327 308.621 535.086 86.201 49.7 164.208 54.275 220.505 21.285z" fill="#FF7517"/><path d="M672.051 921.41l7.45-4.363a157.29 157.29 0 01-25.116 11.6l-7.556 4.363a158.461 158.461 0 0025.116-11.6" fill="#FF7517"/><path d="M646.936 933.01l7.556-4.363a163.25 163.25 0 01-21.285 5.96l-7.45 4.362a157.397 157.397 0 0021.285-5.96m-21.71 5.96l7.45-4.363a164.314 164.314 0 01-17.88 2.554l-7.449 4.364a164.314 164.314 0 0017.88-2.555" fill="#FF7517"/><path d="M607.453 941.524l7.45-4.364a157.93 157.93 0 01-16.07.745l-7.45 4.363c5.428 0 10.643 0 16.07-.744" fill="#FF7517"/><path d="M591.384 942.268l7.45-4.363H584.36l-7.556 4.363h14.58m-14.58-.425l7.556-4.363c-4.576 0-9.152-.852-13.835-1.49l-7.556 4.363c4.683.638 9.259 1.17 13.835 1.49m-13.835-1.49l7.556-4.363c-4.47 0-9.046-1.277-13.622-2.235l-7.45 4.363a155.43 155.43 0 0013.516 2.235" fill="#FF7517"/><path d="M549.454 938.118l7.45-4.363c-4.151-.745-8.408-1.703-12.665-2.767l-7.45 4.363c4.258 1.064 8.514 2.022 12.665 2.767" fill="#FF7517"/><path d="M537.322 935.351l7.45-4.363L532 927.476l-7.556 4.363 12.877 3.512m-13.41-3.512l7.557-4.363-12.452-4.044-7.45 4.363 12.346 4.044" fill="#FF7517"/><path d="M511.568 927.795l7.45-4.363q-6.28-2.235-12.452-4.789l-7.556 4.363 12.558 4.79m-12.558-4.79l7.556-4.363c-4.15-1.596-8.3-3.406-12.451-5.215l-7.45 4.364c4.15 1.809 8.301 3.618 12.345 5.214m-12.345-5.214l7.45-4.364c-4.15-1.915-8.301-3.83-12.558-5.96l-7.45 4.364c4.151 2.128 8.408 4.044 12.558 5.96" fill="#FF7517"/><path d="M474.108 911.832l7.45-4.363-12.665-6.492-7.556 4.363c4.257 2.235 8.514 4.47 12.77 6.492" fill="#FF7517"/><path d="M461.337 905.34l7.556-4.363-9.897-5.534-2.98-1.49-7.556 4.364 3.086 1.809 9.791 5.534m-12.877-7.663l7.556-4.363c-4.47-2.554-8.833-5.215-13.196-7.982l-7.45 4.364q6.492 4.15 13.09 7.981" fill="#FF7517"/><path d="M435.37 890.016l7.45-4.364-13.09-8.726-7.556 4.363 13.196 8.727m-13.196-8.727l7.556-4.363c-4.576-3.086-9.046-6.279-13.516-9.578l-7.449 4.363q6.705 5.002 13.41 9.578" fill="#FF7517"/><path d="M408.765 871.711l7.45-4.363c-4.577-3.406-9.046-6.811-13.622-10.642l-7.45 4.363c4.47 3.618 9.046 7.024 13.622 10.642" fill="#FF7517"/><path d="M395.143 861.282l7.45-4.363q-6.811-5.428-13.729-10.642l-7.556 4.363c4.576 3.831 9.153 7.556 13.835 11.174m-13.835-11.706l7.556-4.364c-4.682-3.937-9.258-7.981-13.835-12.025l-7.449 4.363 13.728 12.026" fill="#FF7517"/><path d="M367.58 838.082l7.45-4.363-13.622-12.664-7.45 4.363 13.622 12.664" fill="#FF7517"/><path d="M353.958 825.418l7.45-4.363-12.984-12.984-7.556 4.364c4.364 4.363 8.62 8.726 13.09 12.983m-13.09-12.983l7.556-4.364c-4.363-4.363-8.514-8.726-12.77-13.302l-7.45 4.363c4.15 4.576 8.407 8.94 12.664 13.303m-12.664-13.303l7.45-4.363a713.159 713.159 0 01-12.026-13.303l-7.45 4.363c3.938 4.47 7.982 8.94 12.026 13.303m-12.025-13.303l7.449-4.363c-4.044-4.576-7.982-9.259-11.92-14.048l-7.555 4.364c3.937 4.789 7.981 9.471 12.026 14.047m-12.026-14.047l7.556-4.364a558.712 558.712 0 01-12.026-14.792l-7.45 4.363a803.93 803.93 0 0011.92 14.793" fill="#FF7517"/><path d="M292.553 756.99l7.45-4.364c-4.683-5.853-9.26-11.92-13.729-18.092l-7.556 4.363c4.576 6.173 9.152 12.239 13.835 18.092m-14.154-18.092l7.556-4.363a767.058 767.058 0 01-19.688-27.882l-7.45 4.363c6.386 9.472 12.877 18.837 19.582 27.882" fill="#FF7517"/><path d="M258.817 711.015l7.45-4.363c-7.982-12.026-15.644-24.158-22.88-36.61l-7.557 4.364a876.753 876.753 0 0022.987 36.61m-22.987-36.61l7.556-4.363c-5.32-9.046-10.642-18.092-15.324-27.244l-7.45 4.363c4.896 9.153 9.897 18.198 15.218 27.244" fill="#FF7517"/><path d="M220.612 647.162l7.45-4.363a614.429 614.429 0 01-9.578-18.624l-7.556 4.364c3.086 6.279 6.385 12.45 9.684 18.623" fill="#FF7517"/><path d="M210.928 628.539l7.556-4.364c-2.767-5.427-5.428-10.642-7.982-16.388l-7.45 4.363c2.555 5.534 5.215 10.642 7.876 16.389" fill="#FF7517"/><path d="M203.053 612.15l7.45-4.363c-2.342-4.896-4.577-9.898-6.812-14.9l-7.45 4.364c2.236 5.002 4.47 10.003 6.812 14.899" fill="#FF7517"/><path d="M196.774 597.25l7.45-4.362a878.74 878.74 0 01-6.28-14.793l-7.555 4.363c2.128 4.896 4.15 9.897 6.385 14.793m-6.918-14.793l7.556-4.363q-3.192-7.45-6.066-15.005l-7.556 4.363 6.066 15.005" fill="#FF7517"/><path d="M183.79 567.453l7.556-4.363-5.214-15.219-7.45 4.364c1.81 5.108 3.725 10.642 5.64 15.218m-6.172-15.218l7.45-4.364c-1.916-5.214-3.725-10.642-5.428-15.75l-7.556 4.363c1.81 5.215 3.619 10.642 5.534 15.75m-5.534-15.75l7.556-4.363a939.921 939.921 0 01-5.214-16.07l-7.45 4.364a555.544 555.544 0 005.108 16.07" fill="#FF7517"/><path d="M167.508 520.415l7.45-4.364-4.79-15.856-7.449 4.363c1.49 5.427 3.086 10.642 4.789 16.389" fill="#FF7517"/><path d="M162.72 504.026l7.449-3.831c-1.49-5.428-2.874-10.642-4.257-16.39l-7.556 4.364c1.383 5.428 2.873 10.642 4.363 16.389m-4.363-16.921l7.556-4.363q-2.129-8.195-3.831-16.283l-7.45 4.363c1.17 5.428 2.448 10.643 3.725 16.283m-4.15-16.283l7.449-4.363a723.664 723.664 0 01-3.3-16.176l-7.449 4.363a1094.447 1094.447 0 003.3 16.176" fill="#FF7517"/><path d="M151.332 455.178l7.45-4.363c-.958-5.214-1.81-10.642-2.661-15.644l-7.45 4.364c.745 5.214 1.703 10.642 2.661 15.643m-2.66-15.643l7.449-4.364c-.851-5.214-1.596-10.642-2.235-15.537l-7.45 4.363c.64 5.108 1.384 10.642 2.235 15.538" fill="#FF7517"/><path d="M146.437 423.997l7.45-4.363c-.64-5.108-1.172-10.642-1.704-15.218l-7.45 4.363c0 5.108 1.065 10.642 1.704 15.218m-1.703-15.218l7.45-4.363c0-5.002-.852-10.004-1.171-15.006l-7.45 4.363c0 5.002.639 10.004 1.17 15.006" fill="#FF7517"/><path d="M143.563 393.773l7.45-4.363q0-7.662-.639-15.005l-7.556 4.363c0 4.895 0 9.897.745 15.005m-.745-15.005l7.556-4.363v-14.9l-7.556 4.364v14.899m-.213-14.899l7.556-4.363V344.5l-7.45 4.364v15.005" fill="#FF7517"/><path d="M143.563 348.864l7.45-4.364c0-4.895 0-9.79.958-14.58l-8.408 4.364c0 4.789-.638 9.684-.851 14.58" fill="#FF7517"/><path d="M143.563 334.284l7.875-4.363c0-5.109.852-10.11 1.49-14.9l-7.45 4.364c-.638 4.789-1.17 9.79-1.595 14.899m1.596-15.005l7.45-4.364a312.578 312.578 0 012.234-14.899l-7.556 4.364c-.851 4.895-1.49 9.79-2.128 14.899" fill="#FF7517"/><path d="M147.607 304.486l7.556-4.363c.852-5.109 1.916-10.642 2.98-15.112l-7.45 4.363c-1.17 4.896-2.128 10.004-3.086 15.112" fill="#FF7517"/><path d="M150.693 289.374l7.45-4.363a344.735 344.735 0 014.15-15.857l-7.45 4.363c-1.489 5.109-2.872 10.643-4.15 15.857m4.15-15.857l7.45-4.363c1.703-5.534 3.512-10.642 5.428-16.282l-7.45 4.363a182.435 182.435 0 00-5.427 16.282m5.427-16.282l7.45-4.363c2.235-6.066 4.789-12.026 7.45-17.666l-7.557 4.363c-2.767 5.215-5.108 11.6-7.343 17.666" fill="#FF7517"/><path d="M167.614 239.569l7.876-4.363a192.942 192.942 0 0111.706-21.285l-7.556 4.364a212.842 212.842 0 00-11.706 21.284m11.387-21.178l7.556-4.363a157.397 157.397 0 0153.21-52.36l-7.45 4.258a158.036 158.036 0 00-53.742 52.465" fill="#FF7517"/><path d="M323.309 548.19l27.244-15.75 69.28 40.015-27.138 15.856-69.386-40.12z" fill="#FF9F48"/><path d="M473.47 701.97l27.137-15.751-.107 60.554-27.137 15.856.106-60.66z" fill="#FF7517"/><path d="M323.734 428.147l27.138-15.856 27.776 16.07-27.244 15.75-27.67-15.964z" fill="#FF9F48"/><path d="M473.788 608.425l27.138-15.75-.107 26.605-27.137 15.75.106-26.605zm11.6-19.9l27.138-15.751-11.6 19.9-27.138 15.751 11.6-19.9z" fill="#FF7517"/><path d="M473.682 635.03l27.137-15.75 69.387 40.014-27.137 15.75-69.387-40.014z" fill="#FF9F48"/><path d="M543.069 675.045l27.137-15.75-.213 66.938-27.137 15.857.213-67.045z" fill="#FF7517"/><path d="M294.043 280.01l27.137-15.751 88.33 50.976-27.137 15.75-88.33-50.976z" fill="#FF9F48"/><path d="M382.373 330.985l27.137-15.75 51.401 166.017-27.137 15.75-51.401-166.017zm161.015 223.91l27.137-15.75-.213 67.045-27.137 15.75.213-67.045z" fill="#FF7517"/><path d="M515.718 538.932l27.138-15.75 27.67 15.963-27.138 15.75-27.67-15.963zm-30.223-148.351l27.244-15.75 88.33 50.975-27.138 15.75-88.436-50.975z" fill="#FF9F48"/><path d="M573.93 441.557l27.138-15.75-58.212 97.375-27.138 15.75 58.213-97.375z" fill="#FF7517"/><path d="M573.93 441.557l-58.212 97.375 27.67 15.963-.213 67.046-57.787-33.417-11.6 19.901-.106 26.605 69.387 40.015-.213 67.045-69.387-40.12-.106 60.66-80.987-46.826.107-60.554-69.28-40.014.106-67.045 69.386 40.12.107-26.605-11.494-33.203-57.786-33.417.212-66.939 27.67 15.964-57.361-164.102 88.33 50.976 51.401 166.017 51.72-106.421 88.437 50.976z" fill="#FFDF5A"/></svg>